<mxfile host="65bd71144e">
    <diagram id="8boDm3wipQX1gxYKDP75" name="Page-1">
        <mxGraphModel dx="619" dy="1521" grid="1" gridSize="10" guides="1" tooltips="1" connect="1" arrows="1" fold="1" page="1" pageScale="1" pageWidth="1200" pageHeight="1920" math="0" shadow="0">
            <root>
                <mxCell id="0"/>
                <mxCell id="1" parent="0"/>
                <mxCell id="52" value="" style="rounded=1;whiteSpace=wrap;html=1;align=left;" vertex="1" parent="1">
                    <mxGeometry x="625" y="240" width="130" height="140" as="geometry"/>
                </mxCell>
                <mxCell id="41" value="&lt;font style=&quot;font-size: 17px; color: rgb(255, 5, 32);&quot;&gt;AMEModuleImp&lt;/font&gt;" style="html=1;fontColor=#FF3333;fontStyle=1;align=left;verticalAlign=top;spacing=0;labelBorderColor=none;fillColor=none;dashed=1;strokeWidth=2;strokeColor=#FF3333;spacingLeft=4;spacingTop=-3;" vertex="1" parent="1">
                    <mxGeometry x="150" y="120" width="440" height="560" as="geometry"/>
                </mxCell>
                <mxCell id="2" value="MMAU" style="rounded=1;whiteSpace=wrap;html=1;fillColor=#dae8fc;strokeColor=#6c8ebf;" parent="1" vertex="1">
                    <mxGeometry x="230" y="484" width="120" height="60" as="geometry"/>
                </mxCell>
                <mxCell id="3" value="" style="rounded=1;html=1;whiteSpace=wrap;align=left;" parent="1" vertex="1">
                    <mxGeometry x="220" y="145" width="310" height="235" as="geometry"/>
                </mxCell>
                <mxCell id="5" value="MLU&amp;nbsp; &amp;nbsp; &amp;nbsp; &amp;nbsp; &amp;nbsp; &amp;nbsp;" style="rounded=1;whiteSpace=wrap;html=1;fillColor=#dae8fc;strokeColor=#6c8ebf;" parent="1" vertex="1">
                    <mxGeometry x="400" y="484" width="120" height="60" as="geometry"/>
                </mxCell>
                <mxCell id="30" style="edgeStyle=none;html=1;entryX=0.5;entryY=0;entryDx=0;entryDy=0;strokeWidth=3;shape=flexArrow;exitX=0.478;exitY=1.035;exitDx=0;exitDy=0;exitPerimeter=0;" edge="1" parent="1" source="33" target="26">
                    <mxGeometry relative="1" as="geometry">
                        <mxPoint x="375" y="110" as="sourcePoint"/>
                    </mxGeometry>
                </mxCell>
                <mxCell id="7" value="&lt;div style=&quot;color: rgb(171, 178, 191); background-color: rgb(35, 39, 46); font-family: &amp;quot;Monaspace Neon&amp;quot;, monospace, &amp;quot;Droid Sans Mono&amp;quot;, &amp;quot;monospace&amp;quot;, monospace; font-size: 16px; line-height: 22px; white-space: pre;&quot;&gt;&lt;span style=&quot;color: #e5c07b;&quot;&gt;IssueMMAU&lt;/span&gt;&lt;/div&gt;" style="rounded=1;whiteSpace=wrap;html=1;" parent="1" vertex="1">
                    <mxGeometry x="230" y="280" width="120" height="60" as="geometry"/>
                </mxCell>
                <mxCell id="8" value="&lt;div style=&quot;color: rgb(171, 178, 191); background-color: rgb(35, 39, 46); font-family: &amp;quot;Monaspace Neon&amp;quot;, monospace, &amp;quot;Droid Sans Mono&amp;quot;, &amp;quot;monospace&amp;quot;, monospace; font-size: 16px; line-height: 22px; white-space: pre;&quot;&gt;&lt;span style=&quot;color: #e5c07b;&quot;&gt;IssueMLU&lt;/span&gt;&lt;/div&gt;" style="rounded=1;whiteSpace=wrap;html=1;" parent="1" vertex="1">
                    <mxGeometry x="400" y="280" width="120" height="60" as="geometry"/>
                </mxCell>
                <mxCell id="17" value="TR_Regs / ACC_Regs" style="rounded=1;whiteSpace=wrap;html=1;fillColor=#fff2cc;strokeColor=#d6b656;" vertex="1" parent="1">
                    <mxGeometry x="230" y="594" width="290" height="60" as="geometry"/>
                </mxCell>
                <mxCell id="18" value="" style="endArrow=classic;startArrow=classic;html=1;fontColor=#FF3333;exitX=0.5;exitY=0;exitDx=0;exitDy=0;" edge="1" parent="1" source="2">
                    <mxGeometry width="50" height="50" relative="1" as="geometry">
                        <mxPoint x="289.5" y="410" as="sourcePoint"/>
                        <mxPoint x="290" y="340" as="targetPoint"/>
                    </mxGeometry>
                </mxCell>
                <mxCell id="19" value="" style="endArrow=classic;startArrow=classic;html=1;fontColor=#FF3333;exitX=0.5;exitY=0;exitDx=0;exitDy=0;" edge="1" parent="1" source="5">
                    <mxGeometry width="50" height="50" relative="1" as="geometry">
                        <mxPoint x="459.5" y="410" as="sourcePoint"/>
                        <mxPoint x="460" y="340" as="targetPoint"/>
                    </mxGeometry>
                </mxCell>
                <mxCell id="20" value="" style="endArrow=classic;startArrow=classic;html=1;fontColor=#FF3333;" edge="1" parent="1">
                    <mxGeometry width="50" height="50" relative="1" as="geometry">
                        <mxPoint x="270" y="594" as="sourcePoint"/>
                        <mxPoint x="270" y="544" as="targetPoint"/>
                    </mxGeometry>
                </mxCell>
                <mxCell id="21" value="" style="endArrow=classic;startArrow=classic;html=1;fontColor=#FF3333;" edge="1" parent="1">
                    <mxGeometry width="50" height="50" relative="1" as="geometry">
                        <mxPoint x="310" y="594" as="sourcePoint"/>
                        <mxPoint x="310" y="544" as="targetPoint"/>
                    </mxGeometry>
                </mxCell>
                <mxCell id="22" value="" style="endArrow=classic;startArrow=classic;html=1;fontColor=#FF3333;" edge="1" parent="1">
                    <mxGeometry width="50" height="50" relative="1" as="geometry">
                        <mxPoint x="439.5" y="594" as="sourcePoint"/>
                        <mxPoint x="439.5" y="544" as="targetPoint"/>
                    </mxGeometry>
                </mxCell>
                <mxCell id="23" value="" style="endArrow=classic;startArrow=classic;html=1;fontColor=#FF3333;" edge="1" parent="1">
                    <mxGeometry width="50" height="50" relative="1" as="geometry">
                        <mxPoint x="479.5" y="594" as="sourcePoint"/>
                        <mxPoint x="479.5" y="544" as="targetPoint"/>
                    </mxGeometry>
                </mxCell>
                <mxCell id="25" value="&lt;span style=&quot;color: rgb(0, 0, 0); text-align: left; text-wrap-mode: wrap;&quot;&gt;Expander&lt;/span&gt;" style="text;html=1;align=center;verticalAlign=middle;resizable=0;points=[];autosize=1;strokeColor=none;fillColor=none;" vertex="1" parent="1">
                    <mxGeometry x="230" y="158" width="70" height="30" as="geometry"/>
                </mxCell>
                <mxCell id="27" style="edgeStyle=none;html=1;exitX=0;exitY=0.5;exitDx=0;exitDy=0;entryX=0.5;entryY=0;entryDx=0;entryDy=0;" edge="1" parent="1" source="26" target="7">
                    <mxGeometry relative="1" as="geometry">
                        <Array as="points">
                            <mxPoint x="290" y="220"/>
                        </Array>
                    </mxGeometry>
                </mxCell>
                <mxCell id="28" style="edgeStyle=none;html=1;exitX=1;exitY=0.5;exitDx=0;exitDy=0;entryX=0.5;entryY=0;entryDx=0;entryDy=0;" edge="1" parent="1" source="26" target="8">
                    <mxGeometry relative="1" as="geometry">
                        <Array as="points">
                            <mxPoint x="460" y="218"/>
                        </Array>
                    </mxGeometry>
                </mxCell>
                <mxCell id="26" value="&lt;div style=&quot;color: rgb(171, 178, 191); background-color: rgb(35, 39, 46); font-family: &amp;quot;Monaspace Neon&amp;quot;, monospace, &amp;quot;Droid Sans Mono&amp;quot;, &amp;quot;monospace&amp;quot;, monospace; font-size: 16px; line-height: 22px; white-space: pre;&quot;&gt;&lt;span style=&quot;color: #e5c07b;&quot;&gt;ExcuteHandler&lt;/span&gt;&lt;/div&gt;" style="rounded=1;whiteSpace=wrap;html=1;" vertex="1" parent="1">
                    <mxGeometry x="300" y="188" width="150" height="60" as="geometry"/>
                </mxCell>
                <mxCell id="33" value="Uop" style="text;html=1;align=center;verticalAlign=middle;resizable=0;points=[];autosize=1;strokeColor=#d79b00;fillColor=#ffe6cc;fontSize=17;fontStyle=1" vertex="1" parent="1">
                    <mxGeometry x="350" y="70" width="50" height="30" as="geometry"/>
                </mxCell>
                <mxCell id="36" value="&lt;font style=&quot;font-size: 13px;&quot;&gt;&lt;b&gt;&amp;nbsp;Mc&amp;nbsp;&lt;/b&gt;&lt;/font&gt;" style="text;html=1;align=center;verticalAlign=middle;resizable=0;points=[];autosize=1;strokeColor=#d79b00;fillColor=#ffe6cc;rounded=1;" vertex="1" parent="1">
                    <mxGeometry x="630" y="514" width="50" height="30" as="geometry"/>
                </mxCell>
                <mxCell id="38" value="&lt;font style=&quot;font-size: 13px;&quot;&gt;&lt;b&gt;ULc&lt;/b&gt;&lt;/font&gt;" style="text;html=1;align=center;verticalAlign=middle;resizable=0;points=[];autosize=1;strokeColor=#d79b00;fillColor=#ffe6cc;rounded=1;" vertex="1" parent="1">
                    <mxGeometry x="630" y="484" width="50" height="30" as="geometry"/>
                </mxCell>
                <mxCell id="40" value="" style="endArrow=classic;startArrow=classic;html=1;entryX=0;entryY=0.5;entryDx=0;entryDy=0;exitX=1;exitY=0.5;exitDx=0;exitDy=0;strokeWidth=2;" edge="1" parent="1">
                    <mxGeometry width="50" height="50" relative="1" as="geometry">
                        <mxPoint x="520" y="502" as="sourcePoint"/>
                        <mxPoint x="630" y="502" as="targetPoint"/>
                    </mxGeometry>
                </mxCell>
                <mxCell id="44" value="&lt;div style=&quot;color: rgb(171, 178, 191); background-color: rgb(35, 39, 46); font-family: &amp;quot;Monaspace Neon&amp;quot;, monospace, &amp;quot;Droid Sans Mono&amp;quot;, &amp;quot;monospace&amp;quot;, monospace; font-size: 16px; line-height: 22px; white-space: pre;&quot;&gt;&lt;span style=&quot;color: #e5c07b;&quot;&gt;ScoreBoard&lt;/span&gt;&lt;/div&gt;" style="rounded=1;whiteSpace=wrap;html=1;" vertex="1" parent="1">
                    <mxGeometry x="320" y="410" width="110" height="50" as="geometry"/>
                </mxCell>
                <mxCell id="45" value="" style="endArrow=classic;startArrow=classic;html=1;entryX=0.5;entryY=1;entryDx=0;entryDy=0;" edge="1" parent="1" target="26">
                    <mxGeometry width="50" height="50" relative="1" as="geometry">
                        <mxPoint x="375" y="410" as="sourcePoint"/>
                        <mxPoint x="374.5" y="280" as="targetPoint"/>
                    </mxGeometry>
                </mxCell>
                <mxCell id="46" value="&lt;font style=&quot;font-size: 13px;&quot;&gt;&lt;b&gt;CRB&lt;/b&gt;&lt;/font&gt;" style="text;html=1;align=center;verticalAlign=middle;resizable=0;points=[];autosize=1;strokeColor=#d79b00;fillColor=#ffe6cc;rounded=1;" vertex="1" parent="1">
                    <mxGeometry x="471" y="514" width="50" height="30" as="geometry"/>
                </mxCell>
                <mxCell id="47" value="&lt;font style=&quot;font-size: 13px;&quot;&gt;&lt;b&gt;&amp;nbsp;CR&amp;nbsp;&lt;/b&gt;&lt;/font&gt;" style="text;html=1;align=center;verticalAlign=middle;resizable=0;points=[];autosize=1;strokeColor=#d79b00;fillColor=#ffe6cc;rounded=1;" vertex="1" parent="1">
                    <mxGeometry x="471" y="484" width="50" height="30" as="geometry"/>
                </mxCell>
                <mxCell id="48" value="&amp;nbsp; &amp;nbsp; &amp;nbsp; &amp;nbsp; &amp;nbsp; &amp;nbsp; &amp;nbsp; &amp;nbsp;L2" style="rounded=1;whiteSpace=wrap;html=1;fillColor=none;strokeColor=#6c8ebf;" vertex="1" parent="1">
                    <mxGeometry x="629" y="485" width="120" height="60" as="geometry"/>
                </mxCell>
                <mxCell id="49" value="" style="endArrow=classic;html=1;exitX=0;exitY=0.75;exitDx=0;exitDy=0;strokeWidth=2;" edge="1" parent="1" source="48">
                    <mxGeometry width="50" height="50" relative="1" as="geometry">
                        <mxPoint x="600" y="530" as="sourcePoint"/>
                        <mxPoint x="520" y="530" as="targetPoint"/>
                    </mxGeometry>
                </mxCell>
                <mxCell id="55" style="edgeStyle=none;html=1;exitX=0.75;exitY=1;exitDx=0;exitDy=0;entryX=0.75;entryY=0;entryDx=0;entryDy=0;" edge="1" parent="1" source="50" target="51">
                    <mxGeometry relative="1" as="geometry"/>
                </mxCell>
                <mxCell id="50" value="TileHandler" style="rounded=1;whiteSpace=wrap;html=1;" vertex="1" parent="1">
                    <mxGeometry x="648" y="290" width="90" height="30" as="geometry"/>
                </mxCell>
                <mxCell id="54" style="edgeStyle=none;html=1;exitX=0.25;exitY=0;exitDx=0;exitDy=0;entryX=0.25;entryY=1;entryDx=0;entryDy=0;" edge="1" parent="1" source="51" target="50">
                    <mxGeometry relative="1" as="geometry"/>
                </mxCell>
                <mxCell id="51" value="FSM" style="rounded=1;whiteSpace=wrap;html=1;" vertex="1" parent="1">
                    <mxGeometry x="648" y="340" width="90" height="30" as="geometry"/>
                </mxCell>
                <mxCell id="53" value="&lt;div style=&quot;color: rgb(171, 178, 191); background-color: rgb(35, 39, 46); font-family: &amp;quot;Monaspace Neon&amp;quot;, monospace, &amp;quot;Droid Sans Mono&amp;quot;, &amp;quot;monospace&amp;quot;, monospace; font-size: 16px; line-height: 22px; white-space-collapse: preserve;&quot;&gt;&lt;span style=&quot;color: #e5c07b;&quot;&gt;Issue&lt;/span&gt;&lt;span style=&quot;color: rgb(229, 192, 123);&quot;&gt;Module&lt;/span&gt;&lt;/div&gt;" style="text;html=1;align=center;verticalAlign=middle;resizable=0;points=[];autosize=1;strokeColor=none;fillColor=none;" vertex="1" parent="1">
                    <mxGeometry x="625" y="240" width="130" height="40" as="geometry"/>
                </mxCell>
                <mxCell id="57" value="" style="endArrow=classic;html=1;fontColor=#FF3333;strokeWidth=5;strokeColor=#FF0520;" edge="1" parent="1">
                    <mxGeometry width="50" height="50" relative="1" as="geometry">
                        <mxPoint x="468" y="340" as="sourcePoint"/>
                        <mxPoint x="460" y="731" as="targetPoint"/>
                        <Array as="points">
                            <mxPoint x="468" y="491"/>
                            <mxPoint x="690" y="491"/>
                            <mxPoint x="690" y="540"/>
                            <mxPoint x="460" y="540"/>
                        </Array>
                    </mxGeometry>
                </mxCell>
            </root>
        </mxGraphModel>
    </diagram>
</mxfile>